<svg xmlns="http://www.w3.org/2000/svg" xmlns:xlink="http://www.w3.org/1999/xlink" version="1.1" viewBox="85.71 85.71 3000 379.22">
			
			<g transform="scale(8.571428571428571) translate(10, 10)">
				<defs id="SvgjsDefs2002"/><g id="SvgjsG2003" featureKey="K5GtsI-0" transform="matrix(3.0302900194538815,0,0,3.0302900194538815,1.3939342470226168,-17.333258275496053)" fill="#fff"><path d="M12.1 20 l-1.18 -2.64 l-7.32 0 l-1.2 2.64 l-2.86 0 l6.28 -14 l2.88 0 l6.28 14 l-2.88 0 z M9.86 14.9 l-2.6 -5.96 l-2.6 5.96 l5.2 0 z M28.58 19.82 l0 0.18 l-3.14 0 l-4.08 -4.68 l-2.54 0 l0 4.68 l-2.64 0 l0 -14.02 c2.22 0 4.44 0.02 6.66 0.02 c3.3 0.02 5.04 2.22 5.04 4.64 c0 1.92 -0.88 3.86 -3.54 4.4 z M22.84 8.46 l-4.02 0 l0 4.48 l4.02 0 c1.68 0 2.4 -1.12 2.4 -2.24 s-0.74 -2.24 -2.4 -2.24 z M41.86 20.02 l0 -10.16 l-4.56 6.08 l-0.52 0 l-4.46 -6.1 l0 10.18 l-2.64 0 l0 -14 l3.04 0 l4.38 6.02 l4.38 -6.02 l3.02 0 l0 14 l-2.64 0 z M58.1 20 l-1.18 -2.64 l-7.32 0 l-1.2 2.64 l-2.86 0 l6.28 -14 l2.88 0 l6.28 14 l-2.88 0 z M55.86 14.9 l-2.6 -5.96 l-2.6 5.96 l5.2 0 z M67.28 6 c4.8 0 6.94 3.42 7 6.88 c0.06 3.54 -2.1 7.12 -7 7.12 l-5.5 0 l0 -14 l5.5 0 z M64.4 8.5 l0 8.96 l2.88 0 c3.18 0 4.44 -2.32 4.38 -4.6 c-0.06 -2.18 -1.34 -4.36 -4.38 -4.36 l-2.88 0 z M87.14 20 l-1.18 -2.64 l-7.32 0 l-1.2 2.64 l-2.86 0 l6.28 -14 l2.88 0 l6.28 14 l-2.88 0 z M84.9 14.9 l-2.6 -5.96 l-2.6 5.96 l5.2 0 z M90.92000000000002 18.74 c0 -1.88 2.84 -1.88 2.84 0 c0 1.86 -2.84 1.86 -2.84 0 z M90.92000000000002 12.940000000000001 c0 -1.88 2.84 -1.88 2.84 0 c0 1.86 -2.84 1.86 -2.84 0 z M98.38000000000001 20 l-2.62 0 l0 -14 l2.62 0 l0 14 z M107.86000000000001 5.720000000000001 c4.82 0 7.22 3.7 7.18 7.36 c-0.04 3.62 -2.26 7.24 -7.18 7.24 s-7.2 -3.54 -7.2 -7.22 s2.36 -7.38 7.2 -7.38 z M107.86000000000001 8.12 c-3.3 0 -4.66 2.66 -4.6 5.02 c0.06 2.3 1.3 4.76 4.6 4.76 s4.54 -2.48 4.58 -4.78 c0.04 -2.36 -1.28 -5 -4.58 -5 z"/></g>
			</g>
		</svg>